<svg width="182" height="218" viewBox="0 0 182 218" fill="none" xmlns="http://www.w3.org/2000/svg">
<rect width="182" height="218" rx="18" fill="#CCD1FF"/>
<circle cx="34.5" cy="36.5" r="10.5" fill="#8591FF"/>
<rect x="54" y="33" width="104" height="7" fill="#8591FF"/>
<circle cx="34.5" cy="148.5" r="10.5" fill="#8591FF"/>
<rect x="54" y="145" width="104" height="7" fill="#8591FF"/>
<circle cx="34.5" cy="181.5" r="10.5" fill="#8591FF"/>
<rect x="54" y="178" width="104" height="7" fill="#8591FF"/>
<path fill-rule="evenodd" clip-rule="evenodd" d="M166.972 8H15.0275C10.4167 8 6.6789 12.4772 6.6789 18V109V200C6.6789 205.523 10.4167 210 15.0275 210H166.972C171.583 210 175.321 205.523 175.321 200V18C175.321 12.4772 171.583 8 166.972 8ZM15.0275 0C6.72805 0 0 8.05888 0 18V200C0 209.941 6.72806 218 15.0275 218H166.972C175.272 218 182 209.941 182 200V18C182 8.05888 175.272 0 166.972 0H15.0275Z" fill="#8591FF"/>
<path d="M39.4932 85.6C39.4932 84 38.6932 83.2 37.0932 83.2H30.2932C28.6932 83.2 27.8932 84 27.8932 85.6V98.4C27.8932 100 28.6932 100.8 30.2932 100.8H37.0932C38.6932 100.8 39.4932 100 39.4932 98.4V85.6ZM46.6932 98.4C46.6932 101.2 46.0532 103.24 44.7732 104.52C43.5198 105.773 41.4932 106.4 38.6932 106.4H28.6932C25.8932 106.4 23.8532 105.773 22.5732 104.52C21.3198 103.24 20.6932 101.2 20.6932 98.4V85.6C20.6932 82.8 21.3198 80.7733 22.5732 79.52C23.8532 78.24 25.8932 77.6 28.6932 77.6H38.6932C41.4932 77.6 43.5198 78.24 44.7732 79.52C46.0532 80.7733 46.6932 82.8 46.6932 85.6V98.4ZM62.1119 90.2C60.6986 90.2 59.0986 90.4667 57.3119 91V106H50.3119V84.8H56.5119L56.9119 86.8C58.1653 85.9733 59.4453 85.3733 60.7519 85C62.0853 84.6 63.2053 84.4 64.1119 84.4H65.9119C67.7253 84.4 69.1786 84.9467 70.2719 86.04C71.3653 87.1333 71.9119 88.5867 71.9119 90.4V106H64.9119V91.6C64.9119 91.2 64.7786 90.8667 64.5119 90.6C64.2453 90.3333 63.9119 90.2 63.5119 90.2H62.1119ZM95.0994 100.4H109.699V106H87.8994V78H95.0994V100.4ZM120.909 85.6V106H113.909V91H110.909V85.6H120.909ZM113.909 77.6H120.909V83.2H113.909V77.6ZM124.121 100.4C129.535 100.8 133.801 101 136.921 101C137.321 101 137.655 100.867 137.921 100.6C138.188 100.333 138.321 100 138.321 99.6V98.2H129.721C127.908 98.2 126.455 97.6533 125.361 96.56C124.268 95.4667 123.721 94.0133 123.721 92.2V90.8C123.721 88.9867 124.268 87.5333 125.361 86.44C126.455 85.3467 127.908 84.8 129.721 84.8H143.321V90H132.121C131.721 90 131.388 90.1333 131.121 90.4C130.855 90.6667 130.721 91 130.721 91.4C130.721 91.8 130.855 92.1333 131.121 92.4C131.388 92.6667 131.721 92.8 132.121 92.8H139.321C141.135 92.8 142.588 93.3467 143.681 94.44C144.775 95.5333 145.321 96.9867 145.321 98.8V100.4C145.321 102.213 144.775 103.667 143.681 104.76C142.588 105.853 141.135 106.4 139.321 106.4C134.601 106.4 129.535 106.133 124.121 105.6V100.4ZM162.924 106C160.338 106.267 157.804 106.4 155.324 106.4C153.511 106.4 152.058 105.853 150.964 104.76C149.871 103.667 149.324 102.213 149.324 100.4V90.2H146.924V84.8H149.324L150.124 80H156.324V84.8H161.324V90.2H156.324V99.4C156.324 99.8 156.458 100.133 156.724 100.4C156.991 100.667 157.324 100.8 157.724 100.8H162.924V106Z" fill="#505799"/>
</svg>

